<svg xmlns="http://www.w3.org/2000/svg" width="32" height="32" viewBox="0 0 32 32">
    <g fill="#222" fill-rule="nonzero">
        <path d="M16 31.385C7.503 31.385.615 24.497.615 16S7.503.615 16 .615 31.385 7.503 31.385 16 24.497 31.385 16 31.385zm0-1.231c7.815 0 14.154-6.339 14.154-14.154 0-7.815-6.339-14.154-14.154-14.154C8.185 1.846 1.846 8.185 1.846 16c0 7.815 6.339 14.154 14.154 14.154z"/>
        <path d="M18.298 15.372h-1.851v6.782H13.64v-6.782h-1.333v-2.384h1.334v-1.542c0-1.104.524-2.83 2.83-2.83l2.077.008v2.314h-1.507c-.246 0-.594.123-.594.65v1.403h2.096l-.246 2.38v.001z"/>
    </g>
</svg>
