<?xml version="1.0" encoding="UTF-8"?>
<svg width="1110px" height="208px" viewBox="0 0 1110 208" version="1.1" xmlns="http://www.w3.org/2000/svg" xmlns:xlink="http://www.w3.org/1999/xlink">
    <!-- Generator: Sketch 55.1 (78136) - https://sketchapp.com -->
    <title>Fun 2</title>
    <desc>Created with Sketch.</desc>
    <g id="Desktop-Website" stroke="none" stroke-width="1" fill="none" fill-rule="evenodd">
        <g id="Homepage---Updated-Copy" transform="translate(-166.000000, -4344.000000)">
            <g id="Fun-2" transform="translate(166.000000, 4343.000000)">
                <rect id="Rectangle" fill-opacity="0.0863745629" fill="#7E89E4" x="0" y="1" width="1110" height="208" rx="4"></rect>
                <g id="Fun" opacity="0.3">
                    <rect id="Rectangle-Copy-2" fill-opacity="0" fill="#7E89E4" opacity="0" x="0" y="0" width="1110" height="208" rx="4"></rect>
                    <polygon id="Path-2-Copy-3" stroke="#EE2E24" stroke-width="3" stroke-linejoin="round" transform="translate(43.046956, 43.521168) rotate(82.000000) translate(-43.046956, -43.521168) " points="34.0469559 47.9753959 47.5075132 34.5211676 52.0469559 52.5211676"></polygon>
                    <polygon id="Path-2-Copy-6" stroke="#EE2E24" stroke-width="3" stroke-linejoin="round" transform="translate(442.500000, 179.000000) rotate(-165.000000) translate(-442.500000, -179.000000) " points="437.5 181.474571 444.978087 174 447.5 184"></polygon>
                    <polygon id="Path-2-Copy-9" stroke="#EE2E24" stroke-width="3" stroke-linejoin="round" transform="translate(1051.000000, 25.000000) rotate(-165.000000) translate(-1051.000000, -25.000000) " points="1046 27.4745712 1053.47809 20 1056 30"></polygon>
                    <polygon id="Path-2-Copy-8" stroke="#EE2E24" stroke-width="3" opacity="0.699999988" stroke-linejoin="round" transform="translate(897.844872, 172.418364) rotate(-79.000000) translate(-897.844872, -172.418364) " points="890.844872 175.882763 901.314195 165.418364 904.844872 179.418364"></polygon>
                    <circle id="Oval-Copy-10" stroke="#7E89E4" stroke-width="3" opacity="0.4" cx="83.5" cy="168" r="5"></circle>
                    <circle id="Oval-Copy-13" stroke="#7E89E4" stroke-width="3" opacity="0.4" transform="translate(544.500000, 111.000000) scale(1, -1) translate(-544.500000, -111.000000) " cx="544.5" cy="111" r="5"></circle>
                    <circle id="Oval-Copy-14" stroke="#7E89E4" stroke-width="3" opacity="0.4" cx="670.5" cy="175" r="7"></circle>
                    <circle id="Oval-Copy-16" stroke="#7E89E4" stroke-width="3" opacity="0.600000024" cx="1049" cy="160" r="4"></circle>
                    <path d="M280.5,172 L280.5,168.257564 L280.5,172 L284.5,172 L280.5,172 Z M280.5,172 L280.5,176 L280.5,172 L276.5,172 L280.5,172 Z" id="Combined-Shape-Copy-9" stroke="#EE2A24" stroke-width="3" opacity="0.800000012" stroke-linecap="round" stroke-linejoin="round" transform="translate(280.500000, 172.000000) rotate(74.000000) translate(-280.500000, -172.000000) "></path>
                    <path d="M899.5,51 L899.5,47.2575636 L899.5,51 L903.5,51 L899.5,51 Z M899.5,51 L899.5,55 L899.5,51 L895.5,51 L899.5,51 Z" id="Combined-Shape-Copy-11" stroke="#EE2A24" stroke-width="3" stroke-linecap="round" stroke-linejoin="round"></path>
                    <path d="M440.5,49 L440.5,45.2575636 L440.5,49 L444.5,49 L440.5,49 Z M440.5,49 L440.5,53 L440.5,49 L436.5,49 L440.5,49 Z" id="Combined-Shape-Copy-8" stroke="#EE2A24" stroke-width="3" opacity="0.5" stroke-linecap="round" stroke-linejoin="round"></path>
                </g>
            </g>
        </g>
    </g>
</svg>