<svg xmlns="http://www.w3.org/2000/svg" width="200" height="60" viewBox="0 0 200 60">
    <defs>
        <linearGradient id="a" x1="60.591%" x2="27.054%" y1="4.84%" y2="71.968%">
            <stop offset="0%" stop-color="#00A0FF"/>
            <stop offset=".7%" stop-color="#00A1FF"/>
            <stop offset="26%" stop-color="#00BEFF"/>
            <stop offset="51.2%" stop-color="#00D2FF"/>
            <stop offset="76%" stop-color="#00DFFF"/>
            <stop offset="100%" stop-color="#00E3FF"/>
        </linearGradient>
        <linearGradient id="b" x1="107.724%" x2="-130.67%" y1="49.424%" y2="49.424%">
            <stop offset="0%" stop-color="#FFE000"/>
            <stop offset="40.9%" stop-color="#FFBD00"/>
            <stop offset="77.5%" stop-color="#FFA500"/>
            <stop offset="100%" stop-color="#FF9C00"/>
        </linearGradient>
        <linearGradient id="c" x1="86.389%" x2="-49.886%" y1="30.045%" y2="139.52%">
            <stop offset="0%" stop-color="#FF3A44"/>
            <stop offset="100%" stop-color="#C31162"/>
        </linearGradient>
        <linearGradient id="d" x1="-18.581%" x2="42.275%" y1="-14.206%" y2="34.455%">
            <stop offset="0%" stop-color="#32A071"/>
            <stop offset="6.9%" stop-color="#2DA771"/>
            <stop offset="47.6%" stop-color="#15CF74"/>
            <stop offset="80.1%" stop-color="#06E775"/>
            <stop offset="100%" stop-color="#00F076"/>
        </linearGradient>
    </defs>
    <g fill="none" fill-rule="evenodd">
        <rect width="198.5" height="58.5" x=".75" y=".75" fill="#000" stroke="#A6A6A6" stroke-width="1.5" rx="8"/>
        <g fill-rule="nonzero">
            <path fill="#FFF" d="M69.863 14.99c0 1.21-.3 2.268-1.048 3.024-.9.907-1.948 1.361-3.296 1.361-1.348 0-2.397-.454-3.296-1.36-.899-.908-1.348-1.967-1.348-3.328 0-1.36.45-2.419 1.348-3.326.9-.907 1.948-1.361 3.296-1.361.6 0 1.198.151 1.798.454.599.302 1.048.604 1.348 1.058l-.75.756c-.598-.756-1.347-1.058-2.396-1.058-.899 0-1.798.302-2.397 1.058-.749.605-1.049 1.512-1.049 2.57 0 1.06.3 1.966 1.05 2.571.748.605 1.497 1.059 2.396 1.059 1.049 0 1.798-.303 2.547-1.059.45-.453.749-1.058.749-1.814h-3.296v-1.21h4.344v.605zm6.892-3.78H72.71v2.873h3.745v1.058H72.71v2.873h4.045v1.21H71.51V10.15h5.244v1.059zm4.943 8.014H80.5V11.21h-2.547V10.15h6.292v1.059h-2.547v8.014zm6.891 0V10.15h1.199v9.073h-1.199zm6.292 0h-1.198V11.21h-2.547V10.15h6.142v1.059h-2.547v8.014h.15zm14.232-1.21c-.9.907-1.948 1.361-3.296 1.361-1.348 0-2.397-.454-3.296-1.36-.899-.908-1.348-1.967-1.348-3.328 0-1.36.45-2.419 1.348-3.326.9-.907 1.948-1.361 3.296-1.361 1.348 0 2.397.454 3.296 1.36.899.908 1.348 1.967 1.348 3.327 0 1.361-.45 2.42-1.348 3.327zm-5.693-.756c.6.605 1.498 1.059 2.397 1.059.899 0 1.798-.303 2.397-1.059a3.665 3.665 0 0 0 1.049-2.57c0-1.059-.3-1.966-1.05-2.571-.598-.605-1.497-1.059-2.396-1.059-.899 0-1.798.303-2.397 1.059a3.665 3.665 0 0 0-1.049 2.57c0 1.059.3 1.966 1.05 2.571zm8.689 1.966V10.15h1.348l4.345 7.107v-7.107H119v9.073h-1.198l-4.644-7.41v7.41h-1.05zM101.267 32.04c-3.59 0-6.433 2.696-6.433 6.44 0 3.595 2.843 6.44 6.433 6.44s6.433-2.696 6.433-6.44c0-3.894-2.842-6.44-6.433-6.44zm0 10.184c-1.945 0-3.59-1.647-3.59-3.894 0-2.246 1.645-3.894 3.59-3.894 1.945 0 3.59 1.498 3.59 3.894 0 2.247-1.645 3.894-3.59 3.894zM87.354 32.04c-3.59 0-6.432 2.696-6.432 6.44 0 3.595 2.842 6.44 6.432 6.44 3.59 0 6.433-2.696 6.433-6.44 0-3.894-2.842-6.44-6.433-6.44zm0 10.184c-1.944 0-3.59-1.647-3.59-3.894 0-2.246 1.646-3.894 3.59-3.894 1.945 0 3.59 1.498 3.59 3.894 0 2.247-1.645 3.894-3.59 3.894zM70.75 33.987v2.696h6.433c-.15 1.497-.748 2.696-1.496 3.445-.898.898-2.394 1.947-4.937 1.947-4.04 0-7.032-3.146-7.032-7.19 0-4.044 3.142-7.189 7.032-7.189 2.094 0 3.74.899 4.937 1.947l1.944-1.947C75.985 26.198 73.89 25 70.898 25c-5.385 0-10.023 4.493-10.023 9.885 0 5.392 4.638 9.886 10.023 9.886 2.992 0 5.087-.899 6.882-2.846 1.795-1.797 2.394-4.344 2.394-6.29 0-.6 0-1.199-.15-1.648h-9.275zm67.919 2.097c-.599-1.498-2.095-4.044-5.386-4.044s-5.984 2.546-5.984 6.44c0 3.595 2.693 6.44 6.283 6.44 2.843 0 4.638-1.797 5.236-2.845l-2.094-1.498c-.748 1.048-1.646 1.797-3.142 1.797s-2.393-.599-3.142-1.947l8.528-3.595-.3-.748zm-8.677 2.096c0-2.396 1.945-3.744 3.29-3.744 1.048 0 2.095.6 2.395 1.348l-5.685 2.396zm-7.032 6.141h2.843V25.6h-2.843v18.722zm-4.488-10.933c-.748-.75-1.944-1.498-3.44-1.498-3.142 0-6.134 2.846-6.134 6.44 0 3.595 2.842 6.29 6.134 6.29 1.496 0 2.692-.748 3.29-1.497h.15v.899c0 2.396-1.346 3.744-3.44 3.744-1.646 0-2.843-1.198-3.142-2.246l-2.394 1.048c.748 1.648 2.544 3.744 5.685 3.744 3.291 0 5.984-1.947 5.984-6.59V32.34h-2.693v1.049zm-3.29 8.836c-1.946 0-3.591-1.647-3.591-3.894 0-2.246 1.645-3.894 3.59-3.894 1.945 0 3.441 1.648 3.441 3.894 0 2.247-1.496 3.894-3.44 3.894zM151.682 25.6h-6.732v18.722h2.842v-7.04h3.89c3.141 0 6.133-2.246 6.133-5.84 0-3.595-2.992-5.842-6.133-5.842zm.15 8.987h-4.04v-6.44h4.04c2.094 0 3.29 1.797 3.29 3.145-.149 1.647-1.346 3.295-3.29 3.295zm17.204-2.696c-2.095 0-4.19.898-4.937 2.846l2.543 1.048c.598-1.048 1.496-1.348 2.543-1.348 1.496 0 2.843.899 2.992 2.396v.15c-.449-.3-1.645-.749-2.842-.749-2.693 0-5.386 1.498-5.386 4.194 0 2.546 2.244 4.194 4.638 4.194 1.945 0 2.842-.899 3.59-1.797h.15v1.497h2.693v-7.189c-.3-3.295-2.843-5.242-5.984-5.242zm-.3 10.334c-.897 0-2.244-.449-2.244-1.647 0-1.498 1.646-1.947 2.992-1.947 1.197 0 1.796.3 2.544.599-.3 1.797-1.796 2.995-3.292 2.995zm15.708-9.885l-3.141 8.088h-.15l-3.291-8.088h-2.992l4.937 11.383-2.843 6.29h2.843l7.63-17.673h-2.993zm-25.132 11.982h2.842V25.6h-2.843v18.722z"/>
            <path fill="url(#a)" d="M.594.757C.148 1.212 0 1.97 0 2.877v33.47c0 .908.297 1.665.742 2.12l.149.15L19.297 19.84v-.303L.594.757z" transform="translate(14 10)"/>
            <path fill="url(#b)" d="M25.234 26.2l-6.086-6.21v-.454l6.086-6.21.149.152 7.273 4.24c2.078 1.212 2.078 3.181 0 4.393L25.234 26.2z" transform="translate(14 10)"/>
            <path fill="url(#c)" d="M25.383 26.048l-6.235-6.36L.594 38.617c.742.757 1.781.757 3.117.151l21.672-12.72" transform="translate(14 10)"/>
            <path fill="url(#d)" d="M25.383 13.327L3.71.757C2.375 0 1.336.151.594.91l18.554 18.779 6.235-6.361z" transform="translate(14 10)"/>
            <path fill="#000" d="M39.234 35.897L17.711 48.315c-1.188.757-2.227.606-2.969 0l-.148.151.148.152c.742.606 1.781.757 2.969 0l21.523-12.721z" opacity=".2"/>
            <path fill="#000" d="M14.594 48.315c-.446-.454-.594-1.212-.594-2.12v.151c0 .909.297 1.666.742 2.12v-.151h-.148zm32.062-16.659l-7.422 4.24.149.152 7.273-4.24c1.04-.606 1.485-1.363 1.485-2.12 0 .757-.594 1.362-1.485 1.968z" opacity=".12"/>
            <path fill="#FFF" d="M17.71 10.909l28.946 16.81c.89.606 1.485 1.211 1.485 1.968 0-.757-.446-1.514-1.485-2.12l-28.945-16.81C15.633 9.546 14 10.454 14 12.877v.152c0-2.272 1.633-3.332 3.71-2.12z" opacity=".25"/>
        </g>
    </g>
</svg>
