<svg xmlns="http://www.w3.org/2000/svg" width="200" height="60" viewBox="0 0 200 60">
    <g fill="none" fill-rule="evenodd">
        <rect width="198.5" height="58.5" x=".75" y=".75" fill="#000" stroke="#A6A6A6" stroke-width="1.5" rx="8"/>
        <g fill="#FFF" fill-rule="nonzero">
            <path d="M41.386 28.081c-.039-4.295 3.56-6.385 3.725-6.482-2.038-2.936-5.198-3.337-6.308-3.37-2.653-.275-5.227 1.57-6.579 1.57-1.379 0-3.46-1.543-5.704-1.497-2.886.044-5.587 1.695-7.068 4.259-3.057 5.228-.777 12.911 2.151 17.138 1.465 2.07 3.177 4.38 5.418 4.299 2.192-.088 3.01-1.38 5.656-1.38 2.621 0 3.39 1.38 5.676 1.328 2.352-.036 3.833-2.08 5.247-4.168 1.693-2.37 2.373-4.708 2.4-4.828-.054-.019-4.568-1.722-4.614-6.869zM37.07 15.45c1.179-1.457 1.985-3.439 1.761-5.45-1.706.075-3.84 1.166-5.07 2.59-1.086 1.256-2.058 3.314-1.807 5.25 1.917.14 3.885-.956 5.116-2.39zM77.601 43.25h-3.037L72.9 38.108h-5.783l-1.585 5.144h-2.957l5.731-17.51h3.539l5.756 17.51zm-5.202-7.3l-1.505-4.573c-.16-.467-.459-1.567-.897-3.298h-.054c-.176.744-.459 1.844-.845 3.298l-1.48 4.573h4.78zm19.912.832c0 2.148-.593 3.845-1.78 5.091-1.061 1.11-2.381 1.663-3.955 1.663-1.7 0-2.923-.596-3.665-1.79v6.625H80.06V34.775a84.79 84.79 0 0 0-.106-4.15h2.508l.159 2h.053c.951-1.507 2.394-2.261 4.33-2.261 1.515 0 2.779.588 3.79 1.766 1.01 1.18 1.517 2.73 1.517 4.652zm-2.905.103c0-1.229-.281-2.242-.846-3.04-.616-.831-1.444-1.247-2.482-1.247-.703 0-1.343.232-1.914.688a3.184 3.184 0 0 0-1.122 1.807 3.608 3.608 0 0 0-.132.854v2.107c0 .917.286 1.692.858 2.326.573.631 1.316.949 2.231.949 1.074 0 1.91-.41 2.508-1.222.6-.814.899-1.888.899-3.222zm17.666-.103c0 2.148-.592 3.845-1.779 5.091-1.063 1.11-2.382 1.663-3.957 1.663-1.7 0-2.923-.596-3.665-1.79v6.625H94.82V34.775a84.79 84.79 0 0 0-.106-4.15h2.508l.159 2h.053c.95-1.507 2.393-2.261 4.331-2.261 1.513 0 2.777.588 3.79 1.766 1.009 1.18 1.517 2.73 1.517 4.652zm-2.906.103c0-1.229-.282-2.242-.847-3.04-.616-.831-1.442-1.247-2.48-1.247-.703 0-1.342.232-1.916.688-.572.46-.946 1.062-1.12 1.807-.088.347-.135.63-.135.854v2.107c0 .917.288 1.692.858 2.326.572.63 1.316.949 2.233.949 1.076 0 1.911-.41 2.508-1.222.6-.814.899-1.888.899-3.222zm19.41 1.454c0 1.49-.53 2.703-1.582 3.638-1.158 1.021-2.775 1.533-4.848 1.533-1.916 0-3.45-.363-4.61-1.09l.66-2.339c1.25.73 2.624 1.092 4.12 1.092 1.075 0 1.91-.24 2.507-.714.598-.477.9-1.113.9-1.908 0-.712-.25-1.308-.74-1.794-.494-.484-1.31-.935-2.456-1.35-3.116-1.143-4.676-2.815-4.676-5.015 0-1.437.551-2.613 1.65-3.533 1.1-.919 2.558-1.378 4.371-1.378 1.62 0 2.97.278 4.04.832l-.715 2.287c-1.008-.537-2.146-.806-3.42-.806-1.005 0-1.794.244-2.359.728-.475.433-.715.96-.715 1.587 0 .69.274 1.264.82 1.714.473.415 1.337.866 2.586 1.35 1.533.608 2.659 1.316 3.38 2.13.726.812 1.087 1.827 1.087 3.036zm9.452-5.61h-3.143v6.131c0 1.56.554 2.337 1.664 2.337.51 0 .932-.042 1.266-.13l.08 2.13c-.563.207-1.302.31-2.218.31-1.126 0-2.007-.338-2.642-1.014-.632-.676-.95-1.81-.95-3.404v-6.364h-1.873v-2.106h1.872v-2.312l2.8-.831v3.143h3.144v2.11zm14.153 4.105c0 1.94-.565 3.534-1.69 4.78-1.18 1.283-2.747 1.922-4.7 1.922-1.886 0-3.386-.614-4.504-1.842-1.118-1.23-1.677-2.78-1.677-4.65 0-1.956.578-3.559 1.73-4.805 1.154-1.247 2.708-1.871 4.662-1.871 1.883 0 3.396.616 4.54 1.845 1.094 1.192 1.639 2.731 1.639 4.62zm-2.956.064c0-1.156-.254-2.148-.764-2.979-.598-1.002-1.453-1.504-2.562-1.504-1.142 0-2.018.502-2.615 1.504-.51.83-.765 1.84-.765 3.032 0 1.158.254 2.153.765 2.98.617 1.003 1.477 1.504 2.59 1.504 1.09 0 1.945-.512 2.563-1.529.525-.85.788-1.849.788-3.008zm12.228-3.806a5.041 5.041 0 0 0-.898-.078c-1.004 0-1.78.371-2.325 1.118-.473.658-.711 1.49-.711 2.494v6.625h-2.852V34.6a87.29 87.29 0 0 0-.083-3.975h2.484l.104 2.416h.079c.302-.83.776-1.5 1.426-2.002a3.485 3.485 0 0 1 2.06-.676c.264 0 .502.018.714.051l.002 2.677zm12.753 3.248c.007.427-.028.853-.104 1.273h-8.555c.032 1.247.447 2.202 1.241 2.86.721.587 1.653.882 2.798.882 1.267 0 2.422-.198 3.462-.596l.446 1.946c-1.214.52-2.648.78-4.302.78-1.99 0-3.552-.576-4.69-1.726-1.133-1.152-1.702-2.699-1.702-4.637 0-1.903.528-3.488 1.586-4.753 1.108-1.35 2.604-2.025 4.487-2.025 1.85 0 3.25.675 4.201 2.025.753 1.07 1.132 2.396 1.132 3.971zm-2.72-.727c.02-.833-.166-1.55-.553-2.157-.493-.781-1.253-1.17-2.27-1.17-.933 0-1.693.38-2.27 1.143-.475.606-.758 1.335-.844 2.181l5.938.003zM64.939 20.144c-.788 0-1.47-.04-2.038-.106v-8.712a15.154 15.154 0 0 1 2.4-.185c3.249 0 4.745 1.63 4.745 4.285 0 3.063-1.767 4.718-5.107 4.718zm.475-7.885c-.438 0-.812.027-1.121.092v6.623c.167.027.489.04.94.04 2.13 0 3.342-1.236 3.342-3.549 0-2.062-1.096-3.206-3.16-3.206zm9.296 7.951c-1.831 0-3.018-1.393-3.018-3.285 0-1.971 1.212-3.377 3.122-3.377 1.805 0 3.018 1.327 3.018 3.273 0 1.996-1.25 3.39-3.122 3.39zm.053-5.625c-1.006 0-1.65.959-1.65 2.3 0 1.314.658 2.273 1.637 2.273.98 0 1.638-1.025 1.638-2.3 0-1.3-.645-2.273-1.625-2.273zm13.514-.906l-1.96 6.387h-1.278l-.812-2.774a21.357 21.357 0 0 1-.504-2.062h-.027c-.102.696-.296 1.393-.502 2.062l-.864 2.774h-1.29l-1.845-6.387h1.431l.71 3.036c.167.723.308 1.406.425 2.05h.027c.102-.537.27-1.209.516-2.036l.89-3.048h1.135l.852 2.983c.206.723.374 1.433.504 2.103h.037c.09-.657.233-1.354.425-2.103l.762-2.983 1.368-.002zm7.217 6.387H94.1v-3.668c0-1.129-.426-1.695-1.264-1.695-.826 0-1.393.723-1.393 1.564v3.799H90.05v-4.561c0-.565-.013-1.17-.052-1.827h1.226l.065.986h.038c.375-.683 1.135-1.116 1.987-1.116 1.316 0 2.18 1.025 2.18 2.693l-.001 3.825zm3.84 0h-1.393v-9.317h1.394v9.317zm5.08.144c-1.83 0-3.02-1.393-3.02-3.285 0-1.971 1.213-3.377 3.122-3.377 1.806 0 3.018 1.327 3.018 3.273.001 1.996-1.25 3.39-3.12 3.39zm.051-5.625c-1.006 0-1.65.959-1.65 2.3 0 1.314.659 2.273 1.636 2.273.98 0 1.637-1.025 1.637-2.3.001-1.3-.642-2.273-1.623-2.273zm8.561 5.48l-.101-.735h-.037c-.426.592-1.046.88-1.833.88-1.123 0-1.92-.801-1.92-1.88 0-1.575 1.34-2.39 3.662-2.39v-.118c0-.841-.437-1.263-1.3-1.263-.619 0-1.161.159-1.638.474l-.283-.933c.58-.368 1.302-.552 2.151-.552 1.638 0 2.465.88 2.465 2.642v2.352c0 .645.028 1.144.09 1.525l-1.256-.001zm-.191-3.18c-1.547 0-2.324.381-2.324 1.287 0 .67.4.998.956.998.708 0 1.368-.55 1.368-1.3v-.985zm8.12 3.18l-.065-1.025h-.038c-.4.775-1.073 1.17-2.012 1.17-1.512 0-2.63-1.354-2.63-3.26 0-1.996 1.16-3.403 2.744-3.403.839 0 1.433.288 1.768.868h.027v-3.666h1.395v7.595c0 .618.014 1.196.052 1.722h-1.24zm-.206-3.757c0-.894-.58-1.656-1.467-1.656-1.033 0-1.664.933-1.664 2.246 0 1.288.655 2.17 1.636 2.17.876 0 1.495-.776 1.495-1.696v-1.064zm10.235 3.902c-1.83 0-3.017-1.393-3.017-3.285 0-1.971 1.212-3.377 3.12-3.377 1.807 0 3.019 1.327 3.019 3.273.001 1.996-1.25 3.39-3.122 3.39zm.052-5.625c-1.005 0-1.65.959-1.65 2.3 0 1.314.658 2.273 1.636 2.273.981 0 1.638-1.025 1.638-2.3.002-1.3-.642-2.273-1.624-2.273zm10.56 5.48h-1.394v-3.667c0-1.129-.425-1.695-1.264-1.695-.825 0-1.391.723-1.391 1.564v3.799h-1.394v-4.561c0-.565-.014-1.17-.052-1.827h1.225l.065.986h.039c.373-.683 1.135-1.117 1.986-1.117 1.315 0 2.18 1.025 2.18 2.693v3.826zm9.372-5.321h-1.532v3.1c0 .79.268 1.184.81 1.184.246 0 .452-.027.619-.066l.038 1.078c-.27.105-.631.158-1.08.158-1.098 0-1.755-.617-1.755-2.234v-3.22h-.914v-1.065h.914v-1.17l1.368-.42v1.589h1.532v1.066zm7.374 5.322h-1.391v-3.64c0-1.143-.424-1.722-1.264-1.722-.722 0-1.395.5-1.395 1.512v3.85h-1.391v-9.317h1.391v3.836h.028c.439-.696 1.074-1.038 1.885-1.038 1.326 0 2.137 1.05 2.137 2.72v3.799zm7.555-2.852h-4.18c.026 1.209.812 1.891 1.975 1.891a4.63 4.63 0 0 0 1.69-.302l.216.986c-.593.263-1.29.394-2.103.394-1.96 0-3.12-1.262-3.12-3.219 0-1.958 1.188-3.43 2.963-3.43 1.602 0 2.607 1.21 2.607 3.036.009.216-.007.432-.048.644zm-1.277-1.012c0-.986-.488-1.682-1.379-1.682-.8 0-1.433.71-1.523 1.682h2.902z"/>
        </g>
    </g>
</svg>
