<svg xmlns="http://www.w3.org/2000/svg" width="90" height="32" viewBox="0 0 90 32">
    <path fill="#EE2A24" fill-rule="nonzero" d="M74.01 31.41c8.549 0 15.504-6.943 15.504-15.477 0-8.54-6.955-15.478-15.503-15.478-8.55 0-15.504 6.939-15.504 15.478 0 8.534 6.954 15.478 15.504 15.478zm0-20.997c3.047 0 5.528 2.476 5.528 5.518s-2.483 5.514-5.53 5.514-5.525-2.472-5.525-5.516c0-3.045 2.48-5.519 5.526-5.519l.002.003zM15.518 31.411c8.549 0 15.504-6.944 15.504-15.478 0-8.54-6.955-15.478-15.504-15.478C6.971.455.014 7.394.014 15.933c0 8.534 6.957 15.478 15.503 15.478zm0-20.998c3.048 0 5.528 2.476 5.528 5.518s-2.48 5.514-5.528 5.514c-3.046 0-5.524-2.472-5.524-5.516 0-3.045 2.48-5.519 5.524-5.519v.003zm29.238-.348L39.995.657H28.852l10.41 20.58v9.69h10.991v-9.69L60.662.658h-11.15l-4.755 9.408h-.002z"/>
</svg>
