<svg xmlns="http://www.w3.org/2000/svg" width="32" height="32" viewBox="0 0 32 32">
    <g fill="#222" fill-rule="nonzero">
        <path d="M16 31.385C7.503 31.385.615 24.497.615 16S7.503.615 16 .615 31.385 7.503 31.385 16 24.497 31.385 16 31.385zm0-1.231c7.815 0 14.154-6.339 14.154-14.154 0-7.815-6.339-14.154-14.154-14.154C8.185 1.846 1.846 8.185 1.846 16c0 7.815 6.339 14.154 14.154 14.154z"/>
        <path d="M22.062 11.778c-.431-3.123-3.543-4.713-6.862-4.34-2.624.295-5.24 2.416-5.349 5.45-.065 1.853.46 3.241 2.222 3.633.763-1.35-.247-1.646-.407-2.624-.644-4 4.613-6.729 7.368-3.935 1.908 1.935.652 7.883-2.421 7.264-2.944-.59 1.44-5.326-.908-6.255-1.91-.756-2.923 2.31-2.019 3.835-.53 2.62-1.674 5.087-1.21 8.374 1.5-1.09 2.005-3.175 2.421-5.349.753.46 1.157.936 2.12 1.01 3.544.274 5.528-3.543 5.042-7.065l.003.002z"/>
    </g>
</svg>
