<svg xmlns="http://www.w3.org/2000/svg" width="32" height="32" viewBox="0 0 32 32">
    <g fill="#222" fill-rule="nonzero">
        <path d="M16 31.385C7.504 31.385.615 24.497.615 16S7.504.615 16 .615C24.497.615 31.385 7.503 31.385 16S24.497 31.385 16 31.385zm0-1.231c7.815 0 14.154-6.339 14.154-14.154 0-7.815-6.339-14.154-14.154-14.154C8.185 1.846 1.846 8.185 1.846 16c0 7.815 6.339 14.154 14.154 14.154z"/>
        <path d="M24.169 11.582a6.175 6.175 0 0 1-1.785.49 3.125 3.125 0 0 0 1.366-1.719c-.6.357-1.268.616-1.973.753a3.107 3.107 0 0 0-5.295 2.834 8.817 8.817 0 0 1-6.404-3.246 3.107 3.107 0 0 0 .961 4.148 3.095 3.095 0 0 1-1.408-.39v.04c0 1.506 1.07 2.76 2.492 3.046a3.057 3.057 0 0 1-1.402.054 3.114 3.114 0 0 0 2.905 2.16 6.239 6.239 0 0 1-4.6 1.286 8.793 8.793 0 0 0 4.762 1.395c5.715 0 8.84-4.735 8.84-8.84 0-.136-.003-.269-.009-.402a6.34 6.34 0 0 0 1.55-1.608v-.001z"/>
    </g>
</svg>
