<svg xmlns="http://www.w3.org/2000/svg" width="32" height="32" viewBox="0 0 32 32">
    <g fill="#222" fill-rule="nonzero">
        <path d="M16 31.385C7.503 31.385.615 24.497.615 16S7.503.615 16 .615 31.385 7.503 31.385 16 24.497 31.385 16 31.385zm0-1.231c7.815 0 14.154-6.339 14.154-14.154 0-7.815-6.339-14.154-14.154-14.154C8.185 1.846 1.846 8.185 1.846 16c0 7.815 6.339 14.154 14.154 14.154z"/>
        <path d="M14.44 9.866c-1.178-.69-2.132-.16-2.132 1.208v8.407c0 1.358.951 1.926 2.145 1.257l7.33-4.105c1.184-.665 1.194-1.76.013-2.452l-7.358-4.315h.001z"/>
    </g>
</svg>
